<svg width="45" height="45" viewBox="0 0 45 45" fill="none" xmlns="http://www.w3.org/2000/svg">
<path fill-rule="evenodd" clip-rule="evenodd" d="M19.3265 13.3472C19.1183 13.5698 19.0013 13.8716 19.0013 14.1862C19.0013 14.5008 19.1183 14.8026 19.3265 15.0252L26.3157 22.5017L19.325 29.9734C19.1166 30.1963 18.9997 30.4985 19 30.8135C19.0003 31.1285 19.1177 31.4304 19.3265 31.6529C19.5352 31.8755 19.8182 32.0003 20.1132 32C20.4081 31.9997 20.6909 31.8743 20.8992 31.6514L28.6741 23.3406C28.7774 23.2304 28.8594 23.0995 28.9153 22.9554C28.9712 22.8113 29 22.6568 29 22.5009C29 22.3449 28.9712 22.1904 28.9153 22.0464C28.8594 21.9023 28.7774 21.7713 28.6741 21.6611L20.8992 13.3488C20.7961 13.2384 20.6736 13.1507 20.5387 13.0909C20.4038 13.031 20.2592 13.0001 20.1132 13C19.9671 12.9999 19.8224 13.0304 19.6875 13.09C19.5525 13.1496 19.4298 13.237 19.3265 13.3472Z" fill="white"/>
</svg>
