<svg width="14" height="14" viewBox="0 0 14 14" fill="none" xmlns="http://www.w3.org/2000/svg">
<path d="M11.1833 3.443V3.44297C11.1833 3.27721 11.1175 3.11824 11.0003 3.00103L10.9296 3.07174L11.0003 3.00103C10.8831 2.88382 10.7241 2.81797 10.5583 2.81797H5.27916C5.1134 2.81797 4.95443 2.88382 4.83722 3.00103C4.72001 3.11824 4.65416 3.27721 4.65416 3.44297C4.65416 3.52447 4.66953 3.6058 4.70116 3.68215C4.73257 3.75797 4.7786 3.82687 4.83664 3.88491C4.89468 3.94295 4.96358 3.98898 5.0394 4.02039C5.11523 4.0518 5.1965 4.06797 5.27858 4.06797H9.04992L2.99995 10.1185C2.99995 10.1185 2.99995 10.1185 2.99995 10.1185C2.94191 10.1766 2.89586 10.2455 2.86445 10.3213C2.83304 10.3971 2.81687 10.4784 2.81687 10.5605C2.81687 10.6426 2.83304 10.7239 2.86445 10.7997C2.89587 10.8756 2.94191 10.9445 2.99995 11.0025C3.058 11.0606 3.12691 11.1066 3.20275 11.138C3.27858 11.1694 3.35987 11.1856 3.44196 11.1856C3.52404 11.1856 3.60533 11.1694 3.68116 11.138C3.757 11.1066 3.82591 11.0606 3.88396 11.0025L3.81325 10.9318L3.88396 11.0025L9.93322 4.95268L9.93158 8.69292V8.69297C9.93158 8.85873 9.99743 9.0177 10.1146 9.13491C10.2318 9.25212 10.3908 9.31797 10.5566 9.31797C10.7223 9.31797 10.8813 9.25212 10.9985 9.13491C11.1157 9.01771 11.1816 8.85875 11.1816 8.693C11.1816 8.69299 11.1816 8.69298 11.1816 8.69297L11.1833 3.443Z" fill="white" stroke="white" stroke-width="0.2"/>
</svg>
