<svg width="45" height="45" viewBox="0 0 45 45" fill="none" xmlns="http://www.w3.org/2000/svg">
<path fill-rule="evenodd" clip-rule="evenodd" d="M26.6615 13.3461C26.8694 13.5686 26.9861 13.8701 26.9861 14.1845C26.9861 14.4988 26.8694 14.8004 26.6615 15.0228L19.6805 22.4934L26.6615 29.9608C26.7674 30.0703 26.852 30.2012 26.9101 30.346C26.9682 30.4907 26.9988 30.6464 27 30.8039C27.0012 30.9615 26.973 31.1177 26.9171 31.2634C26.8612 31.4092 26.7787 31.5416 26.6745 31.6529C26.5702 31.7643 26.4462 31.8523 26.3097 31.9119C26.1732 31.9715 26.027 32.0014 25.8796 32C25.7322 31.9985 25.5866 31.9657 25.4511 31.9035C25.3157 31.8412 25.1933 31.7508 25.0909 31.6374L17.3254 23.3333C17.2223 23.2231 17.1404 23.0923 17.0846 22.9483C17.0287 22.8043 17 22.65 17 22.4942C17 22.3383 17.0287 22.184 17.0846 22.04C17.1404 21.896 17.2223 21.7652 17.3254 21.6551L25.0909 13.3477C25.2989 13.1254 25.5809 13.0003 25.8751 13C26.1693 12.9997 26.4516 13.1242 26.66 13.3461H26.6615Z" fill="white"/>
</svg>
