<svg width="40" height="40" viewBox="0 0 40 40" fill="none" xmlns="http://www.w3.org/2000/svg">
<path fill-rule="evenodd" clip-rule="evenodd" d="M12.5 2C12.8978 2 13.2794 2.15804 13.5607 2.43934C13.842 2.72064 14 3.10218 14 3.5V4.0134C14.786 4 15.66 4 16.6348 4H23.3652C24.3398 4 25.214 4 26 4.0134V3.5C26 3.10218 26.158 2.72064 26.4393 2.43934C26.7206 2.15804 27.1022 2 27.5 2C27.8978 2 28.2794 2.15804 28.5607 2.43934C28.842 2.72064 29 3.10218 29 3.5V4.2114C29.8564 4.3406 30.6312 4.5556 31.359 4.9264C32.9583 5.74139 34.2586 7.04169 35.0736 8.641C35.5808 9.6364 35.7968 10.7202 35.8996 11.9802C36 13.2088 36 14.73 36 16.6348V23.3652C36 25.2702 36 26.7912 35.8996 28.0198C35.7968 29.2798 35.5808 30.3636 35.0736 31.359C34.2585 32.9583 32.9583 34.2585 31.359 35.0736C30.3636 35.5808 29.2798 35.7966 28.0198 35.8996C26.7912 36 25.2702 36 23.3652 36H16.6348C14.7298 36 13.2088 36 11.9802 35.8996C10.7202 35.7966 9.6364 35.5808 8.641 35.0736C7.04169 34.2586 5.74139 32.9583 4.9264 31.359C4.4192 30.3636 4.2032 29.2798 4.1004 28.0198C4 26.7912 4 25.2702 4 23.3652V16.6348C4 14.7298 4 13.2088 4.1004 11.9802C4.2032 10.7202 4.4192 9.6364 4.9264 8.641C5.74132 7.04164 7.04164 5.74132 8.641 4.9264C9.3688 4.5556 10.1436 4.3404 11 4.2114V3.5C11 3.10218 11.158 2.72064 11.4393 2.43934C11.7206 2.15804 12.1022 2 12.5 2ZM11 7.2592C10.594 7.3472 10.2772 7.4598 10.003 7.5994C8.9681 8.1267 8.1267 8.9681 7.5994 10.003C7.3436 10.505 7.1782 11.15 7.0904 12.2246C7.0488 12.7336 7.0264 13.3094 7.0144 13.98H32.9858C32.9736 13.3094 32.9512 12.7336 32.9096 12.2246C32.8218 11.15 32.6564 10.505 32.4006 10.003C31.8732 8.96814 31.0319 8.12676 29.997 7.5994C29.7228 7.4598 29.406 7.347 29 7.2592V7.5C29 7.89782 28.842 8.27936 28.5607 8.56066C28.2794 8.84196 27.8978 9 27.5 9C27.1022 9 26.7206 8.84196 26.4393 8.56066C26.158 8.27936 26 7.89782 26 7.5V7.014C25.2366 7.0004 24.3504 7 23.3 7H16.7C15.6496 7 14.7634 7.0004 14 7.014V7.5C14 7.89782 13.842 8.27936 13.5607 8.56066C13.2794 8.84196 12.8978 9 12.5 9C12.1022 9 11.7206 8.84196 11.4393 8.56066C11.158 8.27936 11 7.89782 11 7.5V7.2592ZM33 16.98H7V23.3C7 25.285 7.0012 26.6834 7.0904 27.7754C7.1782 28.85 7.3436 29.495 7.5994 29.997C8.12676 31.0319 8.96814 31.8732 10.003 32.4006C10.505 32.6564 11.15 32.8218 12.2246 32.9096C13.3166 32.9988 14.715 33 16.7 33H23.3C25.285 33 26.6834 32.9988 27.7754 32.9096C28.85 32.8218 29.495 32.6564 29.997 32.4006C31.0318 31.8732 31.8732 31.0318 32.4006 29.997C32.6564 29.495 32.8218 28.85 32.9096 27.7754C32.9988 26.6834 33 25.285 33 23.3V16.98ZM30 27C30 28.6568 28.6568 30 27 30C25.3432 30 24 28.6568 24 27C24 25.3432 25.3432 24 27 24C28.6568 24 30 25.3432 30 27Z" fill="white"/>
</svg>
