<svg width="24" height="24" viewBox="0 0 24 24" fill="none" xmlns="http://www.w3.org/2000/svg">
<path d="M6.12132 18.7071L18.8492 5.97918C19.2398 5.58865 19.2398 4.95551 18.8492 4.56497C18.4587 4.17444 17.8256 4.17444 17.435 4.56497L4.70711 17.2929C4.31659 17.6834 4.31657 18.3166 4.70711 18.7071C5.09764 19.0976 5.7308 19.0976 6.12132 18.7071Z" fill="white"/>
<path d="M4.70708 5.97917L17.435 18.7071C17.8255 19.0976 18.4587 19.0976 18.8492 18.7071C19.2397 18.3166 19.2397 17.6834 18.8492 17.2929L6.12129 4.56496C5.73077 4.17443 5.09761 4.17442 4.70708 4.56496C4.31654 4.95549 4.31656 5.58865 4.70708 5.97917Z" fill="white"/>
</svg>
