<svg width="40" height="40" viewBox="0 0 40 40" fill="none" xmlns="http://www.w3.org/2000/svg">
<g clip-path="url(#clip0_211_330)">
<path d="M35 18.1255L32 19.7705V26C32 31.601 26.5659 36 20 36C13.4341 36 7.99999 31.601 7.99999 26V19.7705L3.29781 17.1921C2.08716 16.5282 1.6439 15.0086 2.30776 13.798C2.53674 13.3804 2.88023 13.0369 3.29781 12.8079L18.798 4.30842C19.5467 3.89784 20.4533 3.89784 21.202 4.30842L36.7022 12.8079C37.549 13.2723 38.0204 14.1554 38 15.0585V25.5C38 26.3284 37.3284 27 36.5 27C35.6716 27 35 26.3284 35 25.5V18.1255ZM29 21.4156L21.202 25.6916C20.4533 26.1022 19.5467 26.1022 18.798 25.6916L11 21.4156V26C11 29.7879 14.9679 33 20 33C25.0321 33 29 29.7879 29 26V21.4156ZM20 7.07073L5.53974 15L20 22.9293L34.4602 15L20 7.07073Z" fill="white"/>
</g>
<defs>
<clipPath id="clip0_211_330">
<rect width="40" height="40" fill="white"/>
</clipPath>
</defs>
</svg>
