<svg width="43" height="43" viewBox="0 0 43 43" fill="none" xmlns="http://www.w3.org/2000/svg">
<g clip-path="url(#clip0_226_322)">
<path d="M35.9267 17.1996H28.6729C28.9074 18.621 29.025 20.0545 29.025 21.4996C29.025 22.9447 28.9074 24.3782 28.6729 25.7996H35.9267C36.3322 24.4371 36.55 22.9938 36.55 21.4996C36.55 20.0054 36.3322 18.5621 35.9267 17.1996ZM34.5366 13.9746C32.4545 10.3753 28.9246 7.7183 24.7432 6.79994C26.1549 9.15251 27.2194 11.5449 27.9339 13.9746H34.5366ZM7.07321 17.1996C6.66772 18.5621 6.44998 20.0054 6.44998 21.4996C6.44998 22.9938 6.66772 24.4371 7.07321 25.7996H14.3271C14.0925 24.3782 13.975 22.9447 13.975 21.4996C13.975 20.0545 14.0925 18.621 14.3271 17.1996H7.07321ZM8.4634 13.9746H15.0661C15.7806 11.5449 16.845 9.15251 18.2568 6.79994C14.0754 7.7183 10.5455 10.3753 8.4634 13.9746ZM25.3978 17.1996H17.6021C17.3338 18.6226 17.2 20.0557 17.2 21.4996C17.2 22.9435 17.3338 24.3766 17.6021 25.7996H25.3978C25.6662 24.3766 25.8 22.9435 25.8 21.4996C25.8 20.0557 25.6662 18.6226 25.3978 17.1996ZM24.5531 13.9746C23.8417 11.8578 22.8248 9.76278 21.5 7.68724C20.1751 9.76278 19.1582 11.8578 18.4468 13.9746H24.5531ZM34.5366 29.0246H27.9339C27.2194 31.4543 26.1549 33.8467 24.7432 36.1993C28.9246 35.2809 32.4545 32.6239 34.5366 29.0246ZM8.4634 29.0246C10.5455 32.6239 14.0754 35.2809 18.2568 36.1993C16.845 33.8467 15.7806 31.4543 15.0661 29.0246H8.4634ZM24.5531 29.0246H18.4468C19.1582 31.1414 20.1751 33.2364 21.5 35.312C22.8248 33.2364 23.8417 31.1414 24.5531 29.0246ZM21.5 3.22461C31.593 3.22461 39.775 11.4066 39.775 21.4996C39.775 31.5926 31.593 39.7746 21.5 39.7746C11.407 39.7746 3.22498 31.5926 3.22498 21.4996C3.22498 11.4066 11.407 3.22461 21.5 3.22461Z" fill="white"/>
</g>
<defs>
<clipPath id="clip0_226_322">
<rect width="43" height="43" fill="white"/>
</clipPath>
</defs>
</svg>
