<svg width="48" height="48" viewBox="0 0 48 48" fill="none" xmlns="http://www.w3.org/2000/svg">
<path fill-rule="evenodd" clip-rule="evenodd" d="M15.7858 6H32.2142C36.4711 6 38.0191 6.43344 39.5765 7.26792C41.1103 8.08992 42.3142 9.29616 43.1347 10.8331C43.9675 12.3936 44.4 13.9447 44.4 18.2102V29.7898C44.4 34.0553 43.9675 35.6064 43.1347 37.1669C42.3142 38.7038 41.1103 39.9101 39.5765 40.7321C38.0191 41.5666 36.4711 42 32.2142 42H15.7858C11.5289 42 9.98088 41.5666 8.42352 40.7321C6.88968 39.9101 5.68584 38.7038 4.86552 37.1669C4.03248 35.6064 3.6 34.0553 3.6 29.7898V18.2102C3.6 13.9447 4.03248 12.3936 4.86528 10.8331C5.68584 9.29616 6.88968 8.08992 8.42352 7.26792C9.98112 6.43344 11.5291 6 15.7858 6ZM7.2 29.7898V18.2102C7.2 14.376 7.57392 13.4189 7.99056 12.6242L18.7032 23.3369C19.3742 24.0079 19.9531 24.5868 20.4686 25.0246C21.013 25.4866 21.6043 25.8962 22.331 26.1324C23.4157 26.485 24.5841 26.485 25.6687 26.1324C26.3957 25.8962 26.9868 25.4866 27.5311 25.0246C28.0469 24.5868 28.6258 24.0079 29.2966 23.3369L40.0094 12.624C40.4261 13.4184 40.8 14.3755 40.8 18.21V29.7895C40.8 33.779 40.3951 34.6536 39.9588 35.4715C39.473 36.3816 38.7821 37.0733 37.8761 37.5588C37.063 37.9944 36.1937 38.3998 32.2142 38.3998H15.7858C11.8066 38.3998 10.937 37.9944 10.1242 37.5588C9.21792 37.0733 8.5272 36.3816 8.04144 35.4715C7.60464 34.6538 7.2 33.7793 7.2 29.7898ZM32.2142 9.6H15.7858C12.6031 9.6 11.4098 9.8592 10.6435 10.1861L21.1997 20.7422C21.9336 21.4762 22.4086 21.949 22.7986 22.2802C23.1725 22.5977 23.3486 22.6778 23.4437 22.7088C23.8052 22.8263 24.1946 22.8263 24.5561 22.7088C24.6511 22.6778 24.8273 22.5977 25.2014 22.2802C25.5914 21.949 26.0662 21.4762 26.8001 20.7422L37.3565 10.1861C36.5902 9.8592 35.3969 9.6 32.2142 9.6Z" fill="white"/>
</svg>
