<svg width="48" height="48" viewBox="0 0 48 48" fill="none" xmlns="http://www.w3.org/2000/svg">
<path d="M22.44 33.6001C21.9626 33.6001 21.5048 33.7897 21.1672 34.1273C20.8297 34.4649 20.64 34.9227 20.64 35.4001C20.64 35.8775 20.8297 36.3353 21.1672 36.6729C21.5048 37.0105 21.9626 37.2001 22.44 37.2001H25.56C26.0374 37.2001 26.4952 37.0105 26.8328 36.6729C27.1704 36.3353 27.36 35.8775 27.36 35.4001C27.36 34.9227 27.1704 34.4649 26.8328 34.1273C26.4952 33.7897 26.0374 33.6001 25.56 33.6001H22.44Z" fill="white"/>
<path fill-rule="evenodd" clip-rule="evenodd" d="M9.60001 16.1199C9.60001 11.7375 9.60001 9.54634 10.453 7.87258C11.2032 6.40028 12.4002 5.20325 13.8725 4.45306C15.5462 3.6001 17.7374 3.6001 22.1198 3.6001H25.8802C30.2626 3.6001 32.4538 3.6001 34.1275 4.45306C35.5999 5.20317 36.7969 6.40022 37.547 7.87258C38.4 9.54634 38.4 11.7375 38.4 16.1199V31.8803C38.4 36.2627 38.4 38.4539 37.547 40.1276C36.797 41.6 35.6 42.7971 34.1275 43.5471C32.4538 44.4001 30.2626 44.4001 25.8802 44.4001H22.1198C17.7374 44.4001 15.5462 44.4001 13.8725 43.5471C12.4001 42.797 11.2031 41.6 10.453 40.1276C9.60001 38.4539 9.60001 36.2627 9.60001 31.8803V16.1199ZM22.1198 7.2001H25.8802C28.1306 7.2001 29.6021 7.20298 30.7265 7.29466C31.8086 7.38322 32.2483 7.53586 32.4931 7.66066C33.2882 8.06552 33.9346 8.71189 34.3394 9.50698C34.4642 9.75178 34.6169 10.1915 34.7054 11.2736C34.7971 12.398 34.8 13.8695 34.8 16.1199V31.8803C34.8 34.1307 34.7971 35.6022 34.7054 36.7266C34.6169 37.8087 34.4642 38.2484 34.3394 38.4932C33.9346 39.2883 33.2882 39.9347 32.4931 40.3395C32.2483 40.4643 31.8086 40.617 30.7265 40.7055C29.6021 40.7972 28.1306 40.8001 25.8802 40.8001H22.1198C19.8694 40.8001 18.3979 40.7972 17.2735 40.7055C16.1914 40.617 15.7517 40.4643 15.5069 40.3395C14.7119 39.9346 14.0655 39.2882 13.6606 38.4932C13.5358 38.2484 13.3831 37.8087 13.2946 36.7266C13.2029 35.6022 13.2 34.1307 13.2 31.8803V16.1199C13.2 13.8695 13.2029 12.398 13.2946 11.2736C13.3831 10.1915 13.5358 9.75178 13.6606 9.50698C14.0656 8.71203 14.7119 8.06571 15.5069 7.66066C15.7517 7.53586 16.1914 7.38322 17.2735 7.29466C18.3979 7.20298 19.8696 7.2001 22.1198 7.2001Z" fill="white"/>
</svg>
