<svg width="43" height="43" viewBox="0 0 43 43" fill="none" xmlns="http://www.w3.org/2000/svg">
<path d="M24.725 13.9789C24.7361 14.4099 24.6608 14.8387 24.5036 15.2401C24.3464 15.6415 24.1104 16.0073 23.8095 16.316C23.5086 16.6248 23.149 16.8701 22.7518 17.0377C22.3546 17.2052 21.9278 17.2915 21.4968 17.2915C21.0657 17.2915 20.6389 17.2052 20.2417 17.0377C19.8445 16.8701 19.4849 16.6248 19.184 16.316C18.8832 16.0073 18.6471 15.6415 18.4899 15.2401C18.3327 14.8387 18.2574 14.4099 18.2685 13.9789C18.2685 13.1224 18.6088 12.3011 19.2144 11.6954C19.82 11.0898 20.6414 10.7496 21.4978 10.7496C22.3543 10.7496 23.1757 11.0898 23.7813 11.6954C24.3869 12.3011 24.7271 13.1224 24.7271 13.9789H24.725ZM14.0244 6.42596C15.968 4.51461 18.6448 3.22461 21.5064 3.22461C24.3681 3.22461 27.0427 4.51676 28.9884 6.42811C30.9299 8.33731 32.2543 10.9797 32.2543 13.8134C32.2543 19.6528 28.4165 24.8708 25.714 27.8572L25.6151 27.9647C24.9142 28.743 24.267 29.4589 23.0931 29.8653C22.5814 30.0437 21.9966 30.1018 21.5064 30.1018C21.0184 30.1018 20.4314 30.0437 19.9197 29.8653C18.7458 29.4568 18.0987 28.743 17.3978 27.9668L17.2989 27.8572C14.5985 24.8687 10.7543 19.6506 10.7543 13.8112C10.7543 10.9732 12.083 8.33516 14.0244 6.42596ZM16.2841 8.72646C14.8457 10.139 13.9793 11.9859 13.9793 13.8112C13.9793 18.3649 17.0688 22.7961 19.6897 25.6921C20.5153 26.6037 20.6464 26.7048 20.9775 26.8187C21.1504 26.8616 21.3283 26.8811 21.5064 26.8768C21.6845 26.8811 21.8624 26.8616 22.0353 26.8187C22.3643 26.7048 22.4976 26.6037 23.321 25.6921C25.944 22.7961 29.0293 18.3671 29.0293 13.8134C29.0293 11.988 28.1628 10.1412 26.7266 8.72646C25.2904 7.31606 23.3963 6.44961 21.5064 6.44961C19.6144 6.44961 17.7224 7.31391 16.2841 8.72646ZM11.1821 27.7454C11.346 27.6112 11.4819 27.4462 11.582 27.2595C11.6821 27.0729 11.7445 26.8684 11.7655 26.6577C11.7866 26.4469 11.7659 26.2341 11.7048 26.0314C11.6436 25.8286 11.5431 25.6399 11.409 25.476C11.2748 25.3121 11.1098 25.1763 10.9231 25.0762C10.7365 24.9761 10.532 24.9137 10.3213 24.8926C10.1105 24.8716 9.89773 24.8922 9.69498 24.9534C9.49224 25.0146 9.30353 25.1151 9.13963 25.2492C7.43038 26.6489 6.44568 29.0053 6.44568 30.8478C6.44568 33.8492 8.61503 36.111 11.2896 37.5322C14.0137 38.9791 17.6257 39.7854 21.4269 39.7854C25.2281 39.7854 28.8809 38.9813 31.6458 37.4849C34.3849 36.0057 36.55 33.6536 36.55 30.5146C36.55 28.5538 35.5395 26.6231 33.856 25.2729C33.5225 25.0051 33.0962 24.8809 32.671 24.9275C32.2458 24.974 31.8566 25.1876 31.5889 25.5212C31.3211 25.8548 31.1969 26.281 31.2435 26.7062C31.29 27.1314 31.5036 27.5206 31.8372 27.7884C32.8692 28.6161 33.325 29.6653 33.325 30.5146C33.325 31.9723 32.3317 33.4493 30.1129 34.649C27.9199 35.8315 24.8217 36.5604 21.4269 36.5604C18.0363 36.5604 14.9661 35.8337 12.8032 34.6834C10.5909 33.5095 9.67068 32.1099 9.67068 30.8478C9.67068 29.9276 10.2555 28.5043 11.1821 27.7454Z" fill="white"/>
</svg>
