<svg width="48" height="48" viewBox="0 0 48 48" fill="none" xmlns="http://www.w3.org/2000/svg">
<path d="M27.6 15.6049C27.6124 16.086 27.5284 16.5646 27.3529 17.0127C27.1773 17.4608 26.9139 17.8692 26.578 18.2138C26.2422 18.5584 25.8407 18.8323 25.3973 19.0193C24.954 19.2064 24.4776 19.3027 23.9964 19.3027C23.5152 19.3027 23.0388 19.2064 22.5954 19.0193C22.1521 18.8323 21.7506 18.5584 21.4147 18.2138C21.0789 17.8692 20.8154 17.4608 20.6399 17.0127C20.4644 16.5646 20.3804 16.086 20.3928 15.6049C20.3928 14.6488 20.7726 13.7319 21.4486 13.0559C22.1246 12.3799 23.0415 12.0001 23.9976 12.0001C24.9536 12.0001 25.8705 12.3799 26.5466 13.0559C27.2226 13.7319 27.6024 14.6488 27.6024 15.6049H27.6ZM15.6552 7.1737C17.8248 5.0401 20.8128 3.6001 24.0072 3.6001C27.2016 3.6001 30.1872 5.0425 32.3592 7.1761C34.5264 9.3073 36.0048 12.2569 36.0048 15.4201C36.0048 21.9385 31.7208 27.7633 28.704 31.0969L28.5936 31.2169C27.8112 32.0857 27.0888 32.8849 25.7784 33.3385C25.2072 33.5377 24.5544 33.6025 24.0072 33.6025C23.4624 33.6025 22.8072 33.5377 22.236 33.3385C20.9256 32.8825 20.2032 32.0857 19.4208 31.2193L19.3104 31.0969C16.296 27.7609 12.0048 21.9361 12.0048 15.4177C12.0048 12.2497 13.488 9.3049 15.6552 7.1737ZM18.1776 9.7417C16.572 11.3185 15.6048 13.3801 15.6048 15.4177C15.6048 20.5009 19.0536 25.4473 21.9792 28.6801C22.9008 29.6977 23.0472 29.8105 23.4168 29.9377C23.6098 29.9856 23.8084 30.0074 24.0072 30.0025C24.206 30.0074 24.4046 29.9856 24.5976 29.9377C24.9648 29.8105 25.1136 29.6977 26.0328 28.6801C28.9608 25.4473 32.4048 20.5033 32.4048 15.4201C32.4048 13.3825 31.4376 11.3209 29.8344 9.7417C28.2312 8.1673 26.1168 7.2001 24.0072 7.2001C21.8952 7.2001 19.7832 8.1649 18.1776 9.7417ZM12.4824 30.9721C12.6653 30.8224 12.817 30.6381 12.9288 30.4298C13.0405 30.2215 13.1101 29.9932 13.1336 29.7579C13.1571 29.5227 13.1341 29.2852 13.0658 29.0588C12.9975 28.8325 12.8853 28.6219 12.7356 28.4389C12.5859 28.2559 12.4016 28.1043 12.1933 27.9925C11.985 27.8808 11.7567 27.8112 11.5214 27.7877C11.2862 27.7641 11.0486 27.7872 10.8223 27.8555C10.596 27.9238 10.3853 28.036 10.2024 28.1857C8.29439 29.7481 7.19519 32.3785 7.19519 34.4353C7.19519 37.7857 9.61679 40.3105 12.6024 41.8969C15.6432 43.5121 19.6752 44.4121 23.9184 44.4121C28.1616 44.4121 32.2392 43.5145 35.3256 41.8441C38.3832 40.1929 40.8 37.5673 40.8 34.0633C40.8 31.8745 39.672 29.7193 37.7928 28.2121C37.4204 27.9132 36.9446 27.7746 36.47 27.8265C35.9954 27.8785 35.5608 28.1169 35.262 28.4893C34.9631 28.8617 34.8245 29.3375 34.8764 29.8121C34.9284 30.2867 35.1668 30.7213 35.5392 31.0201C36.6912 31.9441 37.2 33.1153 37.2 34.0633C37.2 35.6905 36.0912 37.3393 33.6144 38.6785C31.1664 39.9985 27.708 40.8121 23.9184 40.8121C20.1336 40.8121 16.7064 40.0009 14.292 38.7169C11.8224 37.4065 10.7952 35.8441 10.7952 34.4353C10.7952 33.4081 11.448 31.8193 12.4824 30.9721Z" fill="white"/>
</svg>
