<svg width="40" height="40" viewBox="0 0 40 40" fill="none" xmlns="http://www.w3.org/2000/svg">
<path fill-rule="evenodd" clip-rule="evenodd" d="M22.2 6H17.8C15.5103 6 13.9734 6.00234 12.7899 6.09904C11.6414 6.19286 11.0923 6.3604 10.73 6.54496C9.78924 7.02434 9.02434 7.78924 8.54496 8.73004C8.3604 9.0923 8.19286 9.64142 8.09904 10.7899C8.00234 11.9734 8 13.5103 8 15.8V24.2C8 26.4898 8.00234 28.0266 8.09904 29.21C8.19286 30.3586 8.3604 30.9078 8.54496 31.27C9.02434 32.2108 9.78924 32.9756 10.73 33.455C11.0923 33.6396 11.6414 33.8072 12.7899 33.901C13.9734 33.9976 15.5103 34 17.8 34H22.2C24.4898 34 26.0266 33.9976 27.21 33.901C28.3586 33.8072 28.9078 33.6396 29.27 33.455C30.2108 32.9756 30.9756 32.2108 31.455 31.27C31.6396 30.9078 31.8072 30.3586 31.901 29.21C31.9976 28.0266 32 26.4898 32 24.2V15.8C32 13.5103 31.9976 11.9734 31.901 10.7899C31.8072 9.64142 31.6396 9.0923 31.455 8.73004C30.9756 7.78924 30.2108 7.02434 29.27 6.54496C28.9078 6.3604 28.3586 6.19286 27.21 6.09904C26.0266 6.00234 24.4898 6 22.2 6ZM5.87194 7.36808C5 9.07938 5 11.3196 5 15.8V24.2C5 28.6804 5 30.9206 5.87194 32.632C6.63894 34.1372 7.86278 35.361 9.36808 36.128C11.0794 37 13.3196 37 17.8 37H22.2C26.6804 37 28.9206 37 30.632 36.128C32.1372 35.361 33.361 34.1372 34.128 32.632C35 30.9206 35 28.6804 35 24.2V15.8C35 11.3196 35 9.07938 34.128 7.36808C33.361 5.86278 32.1372 4.63894 30.632 3.87194C28.9206 3 26.6804 3 22.2 3H17.8C13.3196 3 11.0794 3 9.36808 3.87194C7.86278 4.63894 6.63894 5.86278 5.87194 7.36808Z" fill="white"/>
<path d="M24 14C24 16.2091 22.2092 18 20 18C17.7909 18 16 16.2091 16 14C16 11.7909 17.7909 10 20 10C22.2092 10 24 11.7909 24 14Z" fill="white"/>
<path d="M12 22.5C12 21.6716 12.6716 21 13.5 21H26.5C27.3284 21 28 21.6716 28 22.5C28 23.3284 27.3284 24 26.5 24H13.5C12.6716 24 12 23.3284 12 22.5Z" fill="white"/>
<path d="M12 28.5C12 27.6716 12.6716 27 13.5 27H26.5C27.3284 27 28 27.6716 28 28.5C28 29.3284 27.3284 30 26.5 30H13.5C12.6716 30 12 29.3284 12 28.5Z" fill="white"/>
</svg>
