<svg width="24" height="24" viewBox="0 0 24 24" fill="none" xmlns="http://www.w3.org/2000/svg">
<g clip-path="url(#clip0_84_668)">
<path d="M12 4.80562C10.7073 4.80562 9.59719 5.26464 8.66979 6.18267C7.74239 7.1007 7.27869 8.21546 7.27869 9.52693H9.66745C9.66745 8.88993 9.89696 8.34192 10.356 7.8829C10.815 7.42389 11.363 7.19438 12 7.19438C12.637 7.19438 13.185 7.42389 13.644 7.8829C14.103 8.34192 14.3326 8.88993 14.3326 9.52693C14.3326 9.8829 14.1967 10.2061 13.9251 10.4965C13.6534 10.7869 13.3021 11.1101 12.8712 11.466C12.7213 11.5972 12.5761 11.719 12.4356 11.8314C12.2951 11.9438 12.1593 12.0656 12.0281 12.1967C11.4286 12.7963 11.0726 13.363 10.9602 13.897C10.8478 14.4309 10.7916 14.7354 10.7916 14.8103V15.5972H13.2084V14.8384C13.2084 14.8197 13.2318 14.7166 13.2787 14.5293C13.3255 14.3419 13.4707 14.1265 13.7143 13.8829C13.808 13.7892 13.911 13.7002 14.0234 13.6159C14.1358 13.5316 14.2482 13.4426 14.3607 13.3489C14.829 12.9555 15.3396 12.459 15.8923 11.8595C16.445 11.26 16.7213 10.4824 16.7213 9.52693C16.7213 8.21546 16.2576 7.1007 15.3302 6.18267C14.4028 5.26464 13.2927 4.80562 12 4.80562ZM10.7916 16.8056H13.2084V19.1944H10.7916V16.8056ZM12 0C10.3513 0 8.79625 0.318501 7.33489 0.955503C5.87354 1.57377 4.59953 2.42623 3.51288 3.51288C2.42623 4.59953 1.57377 5.87354 0.955504 7.33489C0.318501 8.79625 0 10.3513 0 12C0 13.6487 0.318501 15.2037 0.955504 16.6651C1.57377 18.1265 2.42623 19.4005 3.51288 20.4871C4.59953 21.5738 5.87354 22.4262 7.33489 23.0445C8.79625 23.6815 10.3513 24 12 24C13.6487 24 15.2037 23.6815 16.6651 23.0445C18.1265 22.4262 19.4005 21.5738 20.4871 20.4871C21.5738 19.4005 22.4262 18.1265 23.0445 16.6651C23.6815 15.2037 24 13.6487 24 12C24 10.3513 23.6815 8.79625 23.0445 7.33489C22.4262 5.87354 21.5738 4.59953 20.4871 3.51288C19.4005 2.42623 18.1265 1.57377 16.6651 0.955503C15.2037 0.318501 13.6487 0 12 0ZM12 21.5831C10.6698 21.5831 9.42389 21.3302 8.26229 20.8244C7.1007 20.3372 6.08431 19.6581 5.21311 18.7869C4.34192 17.9157 3.66276 16.8993 3.17564 15.7377C2.66979 14.5761 2.41686 13.3302 2.41686 12C2.41686 10.6698 2.66979 9.42389 3.17564 8.26229C3.66276 7.1007 4.34192 6.08431 5.21311 5.21312C6.08431 4.34192 7.1007 3.66276 8.26229 3.17564C9.42389 2.66979 10.6698 2.41686 12 2.41686C13.3302 2.41686 14.5761 2.66979 15.7377 3.17564C16.8993 3.66276 17.9157 4.34192 18.7869 5.21312C19.6581 6.08431 20.3372 7.1007 20.8244 8.26229C21.3302 9.42389 21.5831 10.6698 21.5831 12C21.5831 13.3302 21.3302 14.5761 20.8244 15.7377C20.3372 16.8993 19.6581 17.9157 18.7869 18.7869C17.9157 19.6581 16.8993 20.3372 15.7377 20.8244C14.5761 21.3302 13.3302 21.5831 12 21.5831Z" fill="white"/>
</g>
<defs>
<clipPath id="clip0_84_668">
<rect width="24" height="24" fill="white"/>
</clipPath>
</defs>
</svg>
