<svg width="43" height="43" viewBox="0 0 43 43" fill="none" xmlns="http://www.w3.org/2000/svg">
<g clip-path="url(#clip0_226_340)">
<path d="M29.625 27.0909L37.1002 34.5661C37.7999 35.2658 37.7999 36.4002 37.1002 37.0999C36.4005 37.7996 35.2661 37.7996 34.5664 37.0999L27.0912 29.6247C24.9139 31.2723 22.2013 32.2497 19.2604 32.2497C12.0864 32.2497 6.27081 26.434 6.27081 19.2601C6.27081 12.0861 12.0864 6.27051 19.2604 6.27051C26.4343 6.27051 32.25 12.0861 32.25 19.2601C32.25 22.201 31.2726 24.9136 29.625 27.0909ZM19.2604 28.6663C24.4553 28.6663 28.6666 24.455 28.6666 19.2601C28.6666 14.0652 24.4553 9.85384 19.2604 9.85384C14.0655 9.85384 9.85415 14.0652 9.85415 19.2601C9.85415 24.455 14.0655 28.6663 19.2604 28.6663Z" fill="white"/>
</g>
<defs>
<clipPath id="clip0_226_340">
<rect width="43" height="43" fill="white"/>
</clipPath>
</defs>
</svg>
