<svg width="40" height="40" viewBox="0 0 40 40" fill="none" xmlns="http://www.w3.org/2000/svg">
<path d="M21.5 12.826C21.5 12.4282 21.342 12.0466 21.0607 11.7653C20.7794 11.484 20.3978 11.326 20 11.326C19.6022 11.326 19.2206 11.484 18.9393 11.7653C18.658 12.0466 18.5 12.4282 18.5 12.826V27.176C18.5 27.5738 18.658 27.9554 18.9393 28.2367C19.2206 28.518 19.6022 28.676 20 28.676C20.3978 28.676 20.7794 28.518 21.0607 28.2367C21.342 27.9554 21.5 27.5738 21.5 27.176V12.826ZM13 16.576C13.3978 16.576 13.7794 16.734 14.0607 17.0153C14.342 17.2966 14.5 17.6782 14.5 18.076V27.176C14.5 27.5738 14.342 27.9554 14.0607 28.2367C13.7794 28.518 13.3978 28.676 13 28.676C12.6022 28.676 12.2206 28.518 11.9393 28.2367C11.658 27.9554 11.5 27.5738 11.5 27.176V18.076C11.5 17.6782 11.658 17.2966 11.9393 17.0153C12.2206 16.734 12.6022 16.576 13 16.576ZM28.5 21.576C28.5 21.1782 28.342 20.7966 28.0607 20.5153C27.7794 20.234 27.3978 20.076 27 20.076C26.6022 20.076 26.2206 20.234 25.9393 20.5153C25.658 20.7966 25.5 21.1782 25.5 21.576V27.176C25.5 27.5738 25.658 27.9554 25.9393 28.2367C26.2206 28.518 26.6022 28.676 27 28.676C27.3978 28.676 27.7794 28.518 28.0607 28.2367C28.342 27.9554 28.5 27.5738 28.5 27.176V21.576ZM7.504 3.966C9.092 3.116 10.644 2.75 14.256 2.75H25.744C29.356 2.75 30.908 3.116 32.496 3.966C34.0028 4.76476 35.2352 5.99723 36.034 7.504C36.884 9.092 37.25 10.644 37.25 14.256V25.744C37.25 29.356 36.884 30.908 36.034 32.496C35.2352 34.0028 34.0028 35.2352 32.496 36.034C30.908 36.884 29.356 37.25 25.744 37.25H14.256C10.644 37.25 9.092 36.884 7.504 36.034C5.99723 35.2352 4.76476 34.0028 3.966 32.496C3.116 30.908 2.75 29.356 2.75 25.744V14.256C2.75 10.644 3.116 9.092 3.966 7.504C4.76476 5.99723 5.99723 4.76476 7.504 3.966ZM14.256 5.75C10.876 5.75 9.886 6.094 8.918 6.61C7.918 7.146 7.146 7.92 6.612 8.918C6.092 9.886 5.75 10.876 5.75 14.256V25.744C5.75 29.124 6.094 30.114 6.61 31.082C7.146 32.082 7.92 32.854 8.918 33.388C9.886 33.908 10.876 34.25 14.256 34.25H25.744C29.124 34.25 30.114 33.906 31.082 33.39C32.0657 32.8706 32.8694 32.0661 33.388 31.082C33.908 30.114 34.25 29.124 34.25 25.744V14.256C34.25 10.876 33.906 9.886 33.39 8.918C32.8706 7.93434 32.0661 7.13056 31.082 6.612C30.114 6.092 29.124 5.75 25.744 5.75H14.256Z" fill="white"/>
</svg>
