<svg width="54" height="54" viewBox="0 0 54 54" fill="none" xmlns="http://www.w3.org/2000/svg">
<path d="M37.2036 34.0216L46.591 43.409C47.4697 44.2877 47.4697 45.7123 46.591 46.591C45.7123 47.4697 44.2877 47.4697 43.409 46.591L34.0216 37.2036C31.2873 39.2726 27.8807 40.5 24.1875 40.5C15.1784 40.5 7.875 33.1966 7.875 24.1875C7.875 15.1784 15.1784 7.875 24.1875 7.875C33.1966 7.875 40.5 15.1784 40.5 24.1875C40.5 27.8807 39.2726 31.2873 37.2036 34.0216ZM24.1875 36C30.7114 36 36 30.7114 36 24.1875C36 17.6636 30.7114 12.375 24.1875 12.375C17.6636 12.375 12.375 17.6636 12.375 24.1875C12.375 30.7114 17.6636 36 24.1875 36Z" fill="white"/>
<line x1="24.5" y1="19.5" x2="24.5" y2="29.5" stroke="white" stroke-width="3" stroke-linecap="round"/>
<line x1="29.5" y1="24.5" x2="19.5" y2="24.5" stroke="white" stroke-width="3" stroke-linecap="round"/>
</svg>
