<svg width="176" height="20" viewBox="0 0 176 20" fill="none" xmlns="http://www.w3.org/2000/svg">
<path d="M12.4961 15H9.47852V8.83789H3.82422V15H0.796875V0.722656H3.82422V6.31836H9.47852V0.722656H12.4961V15ZM24.8496 15L23.8145 11.6016H18.6094L17.5742 15H14.3125L19.3516 0.664062H23.0527L28.1113 15H24.8496ZM23.0918 9.0625C22.1348 5.98307 21.5944 4.24154 21.4707 3.83789C21.3535 3.43424 21.2689 3.11523 21.2168 2.88086C21.002 3.71419 20.3867 5.77474 19.3711 9.0625H23.0918ZM40.4258 12.4805H44.8594V0.722656H47.877V15H29.918V0.722656H32.9453V12.4805H37.3789V0.722656H40.4258V12.4805ZM59.7031 15H51.4805V0.722656H59.7031V3.20312H54.5078V6.33789H59.3418V8.81836H54.5078V12.5H59.7031V15ZM79.1562 15H76.1387V8.83789H70.4844V15H67.457V0.722656H70.4844V6.31836H76.1387V0.722656H79.1562V15ZM91.5098 15L90.4746 11.6016H85.2695L84.2344 15H80.9727L86.0117 0.664062H89.7129L94.7715 15H91.5098ZM89.752 9.0625C88.7949 5.98307 88.2546 4.24154 88.1309 3.83789C88.0137 3.43424 87.929 3.11523 87.877 2.88086C87.6621 3.71419 87.0469 5.77474 86.0312 9.0625H89.752ZM102.643 3.03711C101.503 3.03711 100.621 3.4668 99.9961 4.32617C99.3711 5.17904 99.0586 6.37044 99.0586 7.90039C99.0586 11.084 100.253 12.6758 102.643 12.6758C103.645 12.6758 104.859 12.4251 106.285 11.9238V14.4629C105.113 14.9512 103.805 15.1953 102.359 15.1953C100.283 15.1953 98.694 14.5671 97.5938 13.3105C96.4935 12.0475 95.9434 10.2376 95.9434 7.88086C95.9434 6.39648 96.2135 5.09766 96.7539 3.98438C97.2943 2.86458 98.069 2.00846 99.0781 1.41602C100.094 0.817057 101.282 0.517578 102.643 0.517578C104.029 0.517578 105.423 0.852865 106.822 1.52344L105.846 3.98438C105.312 3.73047 104.775 3.50911 104.234 3.32031C103.694 3.13151 103.163 3.03711 102.643 3.03711ZM120.631 15H117.613V3.24219H114.117L113.961 4.55078C113.557 7.8776 113.199 10.2116 112.887 11.5527C112.581 12.8874 112.135 13.8281 111.549 14.375C110.969 14.9219 110.165 15.1953 109.137 15.1953C108.59 15.1953 108.108 15.1237 107.691 14.9805V12.5C108.069 12.6302 108.424 12.6953 108.756 12.6953C109.101 12.6953 109.374 12.5391 109.576 12.2266C109.778 11.9076 109.967 11.3216 110.143 10.4688C110.325 9.60938 110.562 8.20638 110.855 6.25977C111.155 4.30664 111.409 2.46094 111.617 0.722656H120.631V15ZM132.457 15H124.234V0.722656H132.457V3.20312H127.262V6.33789H132.096V8.81836H127.262V12.5H132.457V15ZM133.746 12.4805H134.85C135.794 10.5924 136.539 8.70768 137.086 6.82617C137.633 4.93815 138.04 2.90365 138.307 0.722656H146.627V12.4805H148.531V19.1602H145.611V15H136.666V19.1602H133.746V12.4805ZM140.709 3.24219C140.501 4.73307 140.152 6.31185 139.664 7.97852C139.182 9.64518 138.639 11.1458 138.033 12.4805H143.609V3.24219H140.709ZM150.738 0.722656H153.463V7.61719L153.424 9.46289L153.326 11.5625H153.385L159.977 0.722656H163.6V15H160.904V8.14453C160.904 7.22656 160.963 5.86589 161.08 4.0625H161.002L154.381 15H150.738V0.722656ZM175.426 15H167.203V0.722656H175.426V3.20312H170.23V6.33789H175.064V8.81836H170.23V12.5H175.426V15Z" fill="white"/>
</svg>
