<svg width="380" height="380" viewBox="0 0 380 380" fill="none" xmlns="http://www.w3.org/2000/svg">
<path fill-rule="evenodd" clip-rule="evenodd" d="M47.7145 56.3897C21.3625 61.991 4.54074 87.8942 10.142 114.246L13.6917 130.946C15.2041 138.061 22.198 142.603 29.313 141.091C36.4281 139.579 40.97 132.585 39.4576 125.47L37.3278 115.45C33.967 99.6384 44.0601 84.0965 59.8713 80.7357L70.8456 78.403C77.9607 76.8907 82.5025 69.8968 80.9902 62.7817C79.4778 55.6667 72.484 51.1248 65.3689 52.6371L47.7145 56.3897ZM24.6451 182.478C23.1328 175.363 27.6747 168.369 34.7897 166.857C41.9048 165.344 48.8987 169.886 50.411 177.001L67.2468 256.207C68.7591 263.323 64.2173 270.316 57.1022 271.829C49.9872 273.341 42.9933 268.799 41.4809 261.684L24.6451 182.478ZM62.5789 297.595C69.694 296.082 76.6879 300.624 78.2002 307.739L80.7357 319.668C84.0965 335.479 99.6384 345.572 115.45 342.211L126.424 339.879C133.539 338.366 140.533 342.908 142.045 350.023C143.558 357.138 139.016 364.132 131.901 365.644L114.246 369.397C87.8943 374.998 61.991 358.176 56.3897 331.824L52.4343 313.216C50.922 306.101 55.4639 299.107 62.5789 297.595ZM167.811 344.546C166.299 337.431 170.841 330.438 177.956 328.925L257.162 312.089C264.277 310.577 271.271 315.119 272.783 322.234C274.295 329.349 269.753 336.343 262.638 337.855L183.432 354.691C176.317 356.203 169.323 351.661 167.811 344.546ZM298.549 316.757C297.036 309.642 301.578 302.648 308.693 301.136L319.668 298.803C335.479 295.443 345.572 279.901 342.211 264.089L339.676 252.161C338.163 245.046 342.705 238.052 349.82 236.54C356.935 235.027 363.929 239.569 365.442 246.684L369.397 265.293C374.998 291.645 358.176 317.548 331.824 323.149L314.17 326.902C307.055 328.414 300.061 323.872 298.549 316.757ZM344.344 210.774C337.229 212.286 330.235 207.744 328.722 200.629L311.887 121.423C310.374 114.308 314.916 107.314 322.031 105.802C329.146 104.289 336.14 108.831 337.652 115.946L354.488 195.152C356.001 202.267 351.459 209.261 344.344 210.774ZM316.554 80.0358C309.439 81.5482 302.446 77.0063 300.933 69.8913L298.803 59.8713C295.443 44.0601 279.901 33.967 264.089 37.3278L253.115 39.6605C246 41.1728 239.006 36.6309 237.494 29.5159C235.981 22.4008 240.523 15.4069 247.638 13.8946L265.293 10.142C291.645 4.54074 317.548 21.3625 323.149 47.7145L326.699 64.4146C328.211 71.5296 323.669 78.5235 316.554 80.0358ZM211.728 34.9926C213.24 42.1076 208.698 49.1015 201.583 50.6139L122.377 67.4496C115.262 68.962 108.268 64.4201 106.756 57.305C105.244 50.19 109.786 43.1961 116.901 41.6837L196.107 24.848C203.222 23.3356 210.216 27.8775 211.728 34.9926ZM87.513 135.702C85.8326 127.796 90.8791 120.025 98.7847 118.345L150.316 107.391C158.222 105.711 165.993 110.758 167.673 118.663L178.627 170.195C180.307 178.1 175.261 185.871 167.355 187.552L115.823 198.505C107.918 200.186 100.147 195.139 98.4664 187.233L87.513 135.702ZM102.293 139.542C101.397 135.326 104.089 131.181 108.305 130.285L146.476 122.172C150.693 121.275 154.837 123.967 155.733 128.183L163.847 166.355C164.743 170.571 162.052 174.716 157.836 175.612L119.664 183.725C115.448 184.622 111.303 181.93 110.407 177.714L102.293 139.542ZM118.663 211.866C110.758 213.546 105.711 221.317 107.391 229.222L118.345 280.754C120.025 288.66 127.796 293.706 135.702 292.026L187.233 281.072C195.139 279.392 200.186 271.621 198.505 263.716L187.552 212.184C185.871 204.278 178.1 199.232 170.195 200.912L118.663 211.866ZM128.183 223.806C123.967 224.702 121.275 228.846 122.172 233.063L130.285 271.234C131.181 275.451 135.326 278.142 139.542 277.246L177.714 269.132C181.93 268.236 184.622 264.092 183.726 259.875L175.612 221.704C174.716 217.487 170.571 214.796 166.355 215.692L128.183 223.806ZM121.642 141.414C119.007 141.974 117.324 144.564 117.885 147.2L121.536 164.377C122.096 167.012 124.686 168.694 127.321 168.134L144.499 164.483C147.134 163.923 148.816 161.333 148.256 158.697L144.605 141.52C144.045 138.885 141.454 137.203 138.819 137.763L121.642 141.414ZM137.763 240.72C137.203 238.085 138.885 235.495 141.52 234.934L158.697 231.283C161.333 230.723 163.923 232.405 164.483 235.041L168.134 252.218C168.694 254.853 167.012 257.443 164.377 258.003L147.2 261.655C144.564 262.215 141.974 260.532 141.414 257.897L137.763 240.72ZM215.162 121.536C212.527 122.096 210.845 124.686 211.405 127.321L215.056 144.499C215.616 147.134 218.206 148.816 220.842 148.256L238.019 144.605C240.654 144.045 242.336 141.454 241.776 138.819L238.125 121.642C237.565 119.007 234.975 117.324 232.339 117.885L215.162 121.536ZM200.912 209.344C199.232 201.438 204.278 193.667 212.184 191.987L263.716 181.034C271.621 179.353 279.392 184.4 281.072 192.305L292.026 243.837C293.706 251.743 288.66 259.514 280.754 261.194L229.222 272.147C221.317 273.828 213.546 268.781 211.865 260.876L200.912 209.344ZM181.034 115.823C179.353 107.918 184.4 100.147 192.305 98.4664L243.837 87.513C251.743 85.8326 259.514 90.8792 261.194 98.7848L272.147 150.316C273.828 158.222 268.781 165.993 260.876 167.673L209.344 178.627C201.438 180.307 193.667 175.261 191.987 167.355L181.034 115.823ZM195.814 119.664C194.918 115.448 197.609 111.303 201.825 110.407L239.997 102.293C244.213 101.397 248.358 104.088 249.254 108.305L257.368 146.476C258.264 150.693 255.572 154.837 251.356 155.733L213.184 163.847C208.968 164.743 204.824 162.052 203.927 157.835L195.814 119.664Z" fill="#296495"/>
</svg>
